<?xml version="1.0" encoding="iso-8859-1"?>
<!-- Generator: Adobe Illustrator 19.0.0, SVG Export Plug-In . SVG Version: 6.00 Build 0)  -->
<svg xmlns="http://www.w3.org/2000/svg" xmlns:xlink="http://www.w3.org/1999/xlink" version="1.1" id="Capa_1" x="0px" y="0px" viewBox="0 0 512 512" style="enable-background:new 0 0 512 512;" xml:space="preserve" width="512px" height="512px">
<g>
	<g>
		<path d="M256.004,209.053c-45.202,0-83.571,29.795-96.511,70.776c51.786-24.852,84.406,1.212,101.406,14.802    c1.541,1.232,2.998,2.399,4.383,3.457c1.603,1.225,3.212,2.511,4.915,3.873c18.319,14.646,40.928,32.714,86.707,0.723    C353.028,250.405,309.255,209.053,256.004,209.053z" fill="#FFFFFF"/>
	</g>
</g>
<g>
	<g>
		<path d="M310.977,350.981c-28.422,0.001-47.97-15.631-59.87-25.145c-1.541-1.231-2.998-2.399-4.383-3.456    c-1.603-1.225-3.212-2.511-4.916-3.873c-18.319-14.645-40.93-32.711-86.707-0.723c3.875,52.279,47.648,93.631,100.901,93.631    c45.199,0,83.566-29.791,96.508-70.767C336.974,348.105,323.159,350.981,310.977,350.981z" fill="#FFFFFF"/>
	</g>
</g>
<g>
	<g>
		<path d="M456.255,139.039H55.745H40.461v329.575c0,23.923,19.463,43.386,43.386,43.386h344.307    c23.923,0,43.386-19.463,43.386-43.386V139.039H456.255z M256.004,441.985c-72.647,0-131.751-59.103-131.751-131.75    s59.103-131.751,131.751-131.751s131.75,59.103,131.75,131.751S328.651,441.985,256.004,441.985z" fill="#FFFFFF"/>
	</g>
</g>
<g>
	<g>
		<path d="M428.154,0H83.847C59.924,0,40.461,19.463,40.461,43.386v65.085h15.284h400.51h15.284V43.386    C471.54,19.463,452.077,0,428.154,0z M182.42,70.538h-74.519c-8.441,0-15.284-6.843-15.284-15.284    c0-8.441,6.842-15.284,15.284-15.284h74.519c8.441,0,15.284,6.843,15.284,15.284C197.704,63.695,190.861,70.538,182.42,70.538z     M336.282,70.538h-22.552c-8.441,0-15.284-6.843-15.284-15.284c0-8.441,6.842-15.284,15.284-15.284h22.552    c8.441,0,15.284,6.843,15.284,15.284C351.566,63.695,344.723,70.538,336.282,70.538z M404.099,70.538h-22.552    c-8.441,0-15.284-6.843-15.284-15.284c0-8.441,6.843-15.284,15.284-15.284h22.552c8.441,0,15.284,6.843,15.284,15.284    C419.383,63.695,412.54,70.538,404.099,70.538z" fill="#FFFFFF"/>
	</g>
</g>
<g>
</g>
<g>
</g>
<g>
</g>
<g>
</g>
<g>
</g>
<g>
</g>
<g>
</g>
<g>
</g>
<g>
</g>
<g>
</g>
<g>
</g>
<g>
</g>
<g>
</g>
<g>
</g>
<g>
</g>
</svg>
